# AST/ASF file generated using VICON BodyLanguage
# -----------------------------------------------
:version 1.10
:name VICON
:units
  mass 1.0
  length 0.45
  angle deg
:documentation
   .ast/.asf automatically generated from VICON data using
   VICON BodyBuilder and BodyLanguage model FoxedUp or BRILLIANT.MOD
:root
   order TX TY TZ RX RY RZ
   axis XYZ
   position 0 0 0  
   orientation 0 0 0 
:bonedata
  begin
     id 1 
     name lhipjoint
     direction 0.710087 -0.641647 0.289942 
     length 2.79038 
     axis 0 0 0  XYZ
  end
  begin
     id 2 
     name lfemur
     direction 0.34202 -0.939693 0  
     length 7.2706  
     axis 0 0 20  XYZ
    dof rx ry rz
    limits (-160.0 20.0)
           (-70.0 70.0)
           (-60.0 70.0)
  end
  begin
     id 3 
     name ltibia
     direction 0.34202 -0.939693 0   
     length 7.86328   
     axis 0 0 20   XYZ
    dof rx
    limits (-10.0 170.0)
  end
  begin
     id 4 
     name lfoot
     direction 0.0541246 -0.148706 0.987399   
     length 2.37542   
     axis -90 7.62852e-016 20   XYZ
    dof rx rz
    limits (-45.0 90.0)
           (-70.0 20.0)
  end
  begin
     id 5 
     name ltoes
     direction 1.53554e-011 -4.21866e-011 1   
     length 1.19593   
     axis -90 7.62852e-016 20   XYZ
    dof rx
    limits (-90.0 20.0)
  end
  begin
     id 6 
     name rhipjoint
     direction -0.675762 -0.671724 0.303533   
     length 2.66544  
     axis 0 0 0  XYZ 
  end
  begin
     id 7 
     name rfemur
     direction -0.34202 -0.939693 0   
     length 8.11844   
     axis 0 0 -20   XYZ
    dof rx ry rz
    limits (-160.0 20.0)
           (-70.0 70.0)
           (-70.0 60.0)
  end
  begin
     id 8 
     name rtibia
     direction -0.34202 -0.939693 0   
     length 7.97082   
     axis 0 0 -20   XYZ
    dof rx
    limits (-10.0 170.0)
 end
 begin
     id 9 
     name rfoot
     direction -0.0726228 -0.199474 0.977208   
     length 2.19677  
     axis -90 -7.62852e-016 -20   XYZ
    dof rx rz
    limits (-45.0 90.0)
           (-20.0 70.0)
  end
  begin
     id 10 
     name rtoes
     direction -1.53508e-011 -4.21913e-011 1   
     length 1.10438   
     axis -90 -7.62852e-016 -20   XYZ
    dof rx
    limits (-90.0 20.0)
  end
  begin
     id 11 
     name lowerback
     direction -0.00404436 0.999673 -0.0252643   
     length 2.03972   
     axis 0 0 0   XYZ
    dof rx ry rz
    limits (-20.0 45.0)
           (-30.0 30.0)
           (-30.0 30.0)
  end
  begin
     id 12 
     name upperback
     direction 0.00744643 0.999969 0.00242763   
     length 2.04273   
     axis 0 0 0   XYZ
    dof rx ry rz
    limits (-20.0 45.0)
           (-30.0 30.0)
           (-30.0 30.0)
  end
  begin
     id 13 
     name thorax
     direction 0.00846113 0.999862 0.0143204   
     length 2.03752   
     axis 0 0 0   XYZ
    dof rx ry rz
    limits (-20.0 45.0)
           (-30.0 30.0)
           (-30.0 30.0)
  end
  begin
     id 14 
     name lowerneck
     direction 0.0328213 0.990857 0.130862   
     length 1.37497   
     axis 0 0 0   XYZ
    dof rx ry rz
    limits (-20.0 45.0)
           (-30.0 30.0)
           (-30.0 30.0)
  end
  begin
     id 15 
     name upperneck
     direction -0.0302832 0.999496 0.00956452   
     length 1.35926   
     axis 0 0 0   XYZ
    dof rx ry rz
    limits (-20.0 45.0)
           (-30.0 30.0)
           (-30.0 30.0)
  end
  begin
     id 16
     name head
     direction -0.0130455 0.999856 -0.0108809  
     length 1.44454  
     axis 0 0 0   XYZ
    dof rx ry rz
    limits (-20.0 45.0)
           (-30.0 30.0)
           (-30.0 30.0)
  end
  begin
     id 17 
     name lclavicle
     direction 0.952957 0.278766 0.119006  
     length 3.10112  
     axis 0 0 0   XYZ
    dof ry rz
    limits (-20.0 10.0)
           (0.0 20.0)
  end
  begin
     id 18 
     name lhumerus
     direction 1 -4.48972e-011 -1.63238e-028   
     length 5.82845   
     axis -180 -30 -90   XYZ
    dof rx ry rz
    limits (-60.0 90.0)
           (-90.0 90.0)
           (-90.0 90.0)
  end
  begin
     id 19
     name lradius
     direction 1 -4.48959e-011 1.45401e-026   
     length 3.49691   
     axis -180 -30 -90   XYZ
    dof rx
    limits (-10.0 170.0)
  end
  begin
     id 20
     name lwrist
     direction 1 -4.48945e-011 2.98015e-026   
     length 1.74845   
     axis -1.7599e-014 90 90   XYZ
    dof ry
    limits (-180.0 0.0)
 end
  begin
     id 21 
     name lhand
     direction 1 -4.4902e-011 5.9603e-026   
     length 0.674998   
     axis -3.80318e-014 90 90   XYZ
    dof rx rz
    limits (-90.0 90.0)
           (-45.0 45.0)
  end
  begin
     id 22 
     name lfingers
     direction 1 -4.48979e-011 1.19206e-025   
     length 0.544201   
     axis -7.60636e-014 90 90   XYZ
    dof rx
    limits (0.0 90.0)
  end
  begin
     id 23
     name lthumb
     direction 0.707107 -6.34941e-011 0.707107   
     length 0.781367   
     axis -90 45 2.85299e-015   XYZ
    dof rx rz
    limits (-45.0 45.0)
           (-45.0 45.0)
  end
  begin
     id 24 
     name rclavicle
     direction -0.967632 0.241887 0.0719654   
     length 3.53012  
     axis 0 0 0   XYZ 
    dof ry rz
    limits (-10.0 20.0)
           (-20.0 0.0)
  end
  begin
     id 25 
     name rhumerus
     direction -1 -4.4897e-011 6.87619e-028  
     length 5.45859   
     axis -180 30 90   XYZ
    dof rx ry rz
    limits (-90.0 60.0)
           (-90.0 90.0)
           (-90.0 90.0)
  end
  begin
     id 26 
     name rradius
     direction -1 -4.48967e-011 1.68055e-026   
     length 3.58491   
     axis -180 30 90   XYZ
    dof rx
    limits (-10.0 170.0)
  end
  begin
     id 27 
     name rwrist
     direction -1 -4.48976e-011 2.98015e-026   
     length 1.79245   
     axis -1.7599e-014 -90 -90   XYZ
    dof ry
    limits (-180.0 0.0)
  end
  begin
     id 28
     name rhand
     direction -1 -4.48996e-011 5.9603e-026   
     length 0.683735   
     axis -3.80318e-014 -90 -90   XYZ
    dof rx rz
    limits (-90.0 90.0)
           (-45.0 45.0)
  end
  begin
     id 29
     name rfingers
     direction -1 -4.48924e-011 1.19206e-025   
     length 0.551245   
     axis -7.60636e-014 -90 -90   XYZ
    dof rx
    limits (0.0 90.0)
  end
  begin
     id 30
     name rthumb
     direction -0.707107 -6.3492e-011 0.707107   
     length 0.791481   
     axis -90 -45 -2.85299e-015   XYZ
    dof rx rz
    limits (-45.0 45.0)
           (-45.0 45.0)
  end
:hierarchy
  begin
    root lhipjoint rhipjoint lowerback
    lhipjoint lfemur
    lfemur ltibia
    ltibia lfoot
    lfoot ltoes
    rhipjoint rfemur
    rfemur rtibia
    rtibia rfoot
    rfoot rtoes
    lowerback upperback
    upperback thorax
    thorax lowerneck lclavicle rclavicle
    lowerneck upperneck
    upperneck head
    lclavicle lhumerus
    lhumerus lradius
    lradius lwrist
    lwrist lhand lthumb
    lhand lfingers
    rclavicle rhumerus
    rhumerus rradius
    rradius rwrist
    rwrist rhand rthumb
    rhand rfingers
  end

#!OML:ASF F:\VICON\USERDATA\INSTALL\rory3\rory3.ASF
:FULLY-SPECIFIED
:DEGREES
761
root -0.230292 18.1419 -30.7715 6.90626 -6.47978 -3.54592
lowerback -6.50262 2.15412 1.31172
upperback -2.31447 2.77734 0.286339
thorax 1.30512 1.38378 -0.231641
lowerneck -4.31655 8.57013 9.69139
upperneck 8.97319 11.6276 -8.45754
head 4.45162 5.6881 -3.46208
rclavicle -1.59059e-014 6.36111e-015
rhumerus -44.9386 12.7192 -82.6234
rradius 34.835
rwrist -0.121416
rhand -6.86785 41.6376
rfingers 7.12502
rthumb 18.9979 12.5454
lclavicle -1.59059e-014 6.36111e-015
lhumerus -28.2693 0.955154 69.2451
lradius 35.1592
lwrist 33.6252
lhand -25.6997 427.839
lfingers 7.12502
lthumb -179.164 442.182
rfemur -19.8857 12.7842 21.3442
rtibia 40.6733
rfoot -33.4923 -9.80461
rtoes 4.46566
lfemur -9.04704 -11.0104 -17.2861
ltibia 22.0851
lfoot -17.9787 15.6269
ltoes -3.87455
762
root -0.237706 18.1384 -30.7781 6.78914 -6.1252 -3.50736
lowerback -6.53827 2.15065 1.27933
upperback -2.28035 2.77637 0.15189
thorax 1.36516 1.38346 -0.349196
lowerneck -4.46152 8.58907 9.89949
upperneck 9.2529 11.631 -8.36083
head 4.56806 5.6959 -3.45304
rclavicle -1.84311e-014 1.70955e-014
rhumerus -44.2864 14.2686 -83.7182
rradius 37.5081
rwrist -1.34196
rhand -8.32869 42.6356
rfingers 7.12502
rthumb 17.5925 13.4116
lclavicle -1.84311e-014 1.70955e-014
lhumerus -27.6534 -1.24525 70.401
lradius 36.6035
lwrist 34.2316
lhand -25.4402 428.278
lfingers 7.12502
lthumb -178.914 441.745
rfemur -19.7075 12.8406 21.3902
rtibia 40.6543
rfoot -33.8899 -9.34462
rtoes 6.71819
lfemur -9.05773 -11.0407 -17.263
ltibia 22.1509
lfoot -17.6368 15.6035
ltoes -5.63011
763
root -0.242678 18.135 -30.7869 6.65387 -5.95521 -3.45884
lowerback -6.41743 2.21057 1.19839
upperback -2.41593 2.86527 0.0819365
thorax 1.15974 1.42662 -0.377323
lowerneck -4.27012 8.50562 9.82414
upperneck 9.46288 11.5311 -8.15177
head 4.57418 5.65857 -3.39134
rclavicle -3.17745e-014 1.03368e-014
rhumerus -43.9768 15.8408 -84.6072
rradius 40.2423
rwrist -2.4923
rhand -9.11867 42.5899
rfingers 7.12502
rthumb 16.8322 13.2995
lclavicle -3.17745e-014 1.03368e-014
lhumerus -27.4697 -3.41987 71.6057
lradius 38.054
lwrist 34.5539
lhand -25.2179 428.005
lfingers 7.12502
lthumb -178.699 442.019
rfemur -19.5868 12.8114 21.3896
rtibia 40.6602
rfoot -34.0056 -9.10483
rtoes 7.92558
lfemur -8.98568 -11.1459 -17.3001
ltibia 22.1656
lfoot -17.375 15.6376
ltoes -7.01602
764
root -0.245901 18.1378 -30.7927 6.59338 -5.76315 -3.44032
lowerback -6.27593 2.31366 1.2602
upperback -2.70555 3.00542 -0.105947
thorax 0.798751 1.49294 -0.607651
lowerneck -3.92721 8.38149 10.2585
upperneck 9.93597 11.3776 -8.0477
head 4.66676 5.61145 -3.44629
rclavicle 4.79568e-015 1.63003e-014
rhumerus -43.8669 16.9183 -85.4366
rradius 42.8243
rwrist -3.11071
rhand -9.45763 42.0256
rfingers 7.12502
rthumb 16.5059 12.7077
lclavicle 4.79568e-015 1.63003e-014
lhumerus -27.5521 -5.80019 72.6303
lradius 39.7087
lwrist 35.0529
lhand -24.5691 427.519
lfingers 7.12502
lthumb -178.072 442.51
rfemur -19.5324 12.6611 21.411
rtibia 40.6759
rfoot -34.0144 -9.31814
rtoes 7.27363
lfemur -8.96541 -10.9724 -17.2942
ltibia 22.1423
lfoot -17.258 15.3563
ltoes -6.65966
765
root -0.249745 18.1414 -30.7938 6.55533 -5.47055 -3.3803
lowerback -6.24801 2.27185 1.17902
upperback -2.62761 2.95521 -0.14355
thorax 0.86039 1.46888 -0.603604
lowerneck -4.69591 8.48936 10.2434
upperneck 10.4612 11.4621 -7.85592
head 4.95269 5.64096 -3.33662
rclavicle 4.07633e-014 -5.1684e-015
rhumerus -42.8947 18.273 -85.7836
rradius 45.2468
rwrist -4.03659
rhand -9.87713 41.914
rfingers 7.12502
rthumb 16.102 12.563
lclavicle 4.07633e-014 -5.1684e-015
lhumerus -27.0896 -7.33903 73.5802
lradius 41.2876
lwrist 35.2032
lhand -23.0736 425.937
lfingers 7.12502
lthumb -176.628 444.11
rfemur -19.4604 12.5422 21.3816
rtibia 40.7003
rfoot -34.2227 -9.23081
rtoes 7.84575
lfemur -8.98056 -10.8519 -17.3044
ltibia 22.1161
lfoot -17.1888 14.9682
ltoes -5.87063
766
root -0.254476 18.1405 -30.7944 6.45739 -5.13989 -3.31009
lowerback -6.2746 2.22772 1.10538
upperback -2.52052 2.90041 -0.164694
thorax 0.981718 1.44281 -0.584212
lowerneck -5.17423 8.5427 10.0088
upperneck 10.7376 11.4862 -7.523
head 5.08714 5.64847 -3.17137
rclavicle 1.70582e-014 8.74653e-015
rhumerus -41.9847 19.5719 -85.9422
rradius 47.6601
rwrist -5.18016
rhand -8.79309 41.8928
rfingers 7.12502
rthumb 17.1456 12.6293
lclavicle 1.70582e-014 8.74653e-015
lhumerus -26.657 -8.70652 74.4435
lradius 42.6914
lwrist 35.4834
lhand -22.7251 425.907
lfingers 7.12502
lthumb -176.291 444.145
rfemur -19.3074 12.3157 21.3815
rtibia 40.7137
rfoot -34.4036 -9.43914
rtoes 7.26019
lfemur -8.96516 -11.0713 -17.3437
ltibia 22.1384
lfoot -17.1834 14.9858
ltoes -6.09201
